<svg width="307" height="94" viewBox="0 0 307 94" fill="none" xmlns="http://www.w3.org/2000/svg">
<g filter="url(#filter0_di_3_62)">
<g opacity="0.18">
<path d="M66.8997 35.0257C66.7943 29.3016 62.3449 24.612 56.6394 24.1395C55.5257 24.0475 54.4126 23.9683 53.2992 23.8955C53.25 22.7003 53.1916 21.5051 53.1191 20.317C52.905 16.8174 51.3955 13.5489 48.8687 11.1138C46.3436 8.68002 43.0226 7.29125 39.516 7.20308L39.3189 7.19828C31.7093 7.02832 25.2731 13.0882 25.0054 20.7029C24.9651 21.846 24.9431 22.9549 24.9328 24.0491C23.3038 24.1705 21.6764 24.3089 20.0509 24.4673C16.0284 24.8593 12.8397 27.9985 12.3838 32.0147C11.0365 43.8823 11.0832 56.1863 12.1381 68.6594C12.7282 75.6348 18.4072 81.0976 25.3987 81.4471C35.5181 81.9528 45.8251 81.6231 56.5467 80.4755C62.0443 79.8867 66.2867 75.3441 66.5116 69.8194C66.9847 58.2284 67.1141 46.6244 66.8997 35.0257ZM33.0866 23.6019C33.0984 22.7457 33.1166 21.8805 33.1479 20.9898C33.2597 17.8062 35.951 15.2753 39.1292 15.344L39.3135 15.3485C42.3118 15.4239 44.8037 17.8247 44.9865 20.8147C45.0414 21.716 45.0871 22.622 45.128 23.5284C41.108 23.4322 37.0931 23.46 33.0866 23.6019Z" fill="black"/>
<path d="M12.6751 71.4778C14.3409 77.0575 19.3822 81.1461 25.399 81.4471C35.5184 81.9528 45.8254 81.6231 56.5471 80.4756C62.0446 79.8868 66.287 75.3441 66.5119 69.8194C66.9844 58.2287 67.1138 46.6247 66.8997 35.0261C66.808 30.0374 63.4161 25.8356 58.7693 24.5251C54.3423 37.4234 42.7597 60.4702 14.7444 70.6769C14.0026 70.9471 13.3173 71.2139 12.6751 71.4778Z" fill="black"/>
<path d="M21.2183 56.2662C20.0391 56.2662 19.0034 55.4065 18.8181 54.2049C17.9647 48.6712 19.3621 42.8989 22.6524 38.3681C25.9424 33.8373 30.9988 30.7217 36.5251 29.8208C37.8503 29.6058 39.1001 30.5038 39.3161 31.8294C39.5323 33.1549 38.633 34.4043 37.3075 34.6206C33.0374 35.3168 29.1298 37.7244 26.5874 41.2258C24.0447 44.7273 22.9646 49.1878 23.6243 53.464C23.8291 54.7912 22.9189 56.0333 21.5918 56.2381C21.4662 56.2569 21.3416 56.2662 21.2183 56.2662Z" fill="black"/>
<path d="M38.9742 74.1738C36.7679 74.1339 34.5683 73.7448 32.4853 72.9969C26.8778 70.9835 22.8265 67.0849 20.7697 61.7228C20.2886 60.4689 20.9151 59.0626 22.1691 58.5817C23.422 58.1012 24.8293 58.7271 25.3102 59.9811C26.8667 64.0384 29.8336 66.8779 34.1287 68.4197C38.3439 69.9328 43.1875 69.5203 47.0854 67.3134C50.9831 65.1067 53.8306 61.1666 54.7021 56.7741C54.9634 55.4569 56.2426 54.6007 57.5605 54.8624C58.878 55.1237 59.7339 56.4035 59.4725 57.7204C58.3291 63.4825 54.5941 68.651 49.4815 71.5455C46.2941 73.3496 42.6252 74.24 38.9742 74.1738Z" fill="black"/>
<path d="M56.7167 52.3673C55.4231 52.3673 54.3471 51.3481 54.2893 50.0431C53.9941 43.3603 49.4336 36.9982 43.1996 34.5721C41.9482 34.0849 41.3288 32.6757 41.8156 31.4239C42.3028 30.1729 43.7111 29.5528 44.9635 30.04C52.937 33.1434 58.77 41.2808 59.1476 49.8284C59.2067 51.1699 58.1671 52.3056 56.826 52.365C56.7895 52.3663 56.7531 52.3673 56.7167 52.3673Z" fill="black"/>
<path d="M39.5122 66.1118C36.3324 66.1118 33.1575 64.9371 30.8148 62.6864C29.8464 61.7561 29.8154 60.2168 30.7457 59.2485C31.6764 58.2805 33.2156 58.2495 34.184 59.1798C36.5005 61.4056 40.4898 61.8826 43.267 60.2667C46.0433 58.6501 47.5979 54.9448 46.8059 51.8312C46.4749 50.5296 47.2615 49.2064 48.5633 48.8754C49.8649 48.5444 51.1882 49.3313 51.5191 50.6328C52.8613 55.9103 50.4201 61.7296 45.7142 64.4694C43.8149 65.5745 41.6626 66.1118 39.5122 66.1118Z" fill="black"/>
<path d="M28.6874 57.7236C27.588 57.7236 26.5913 56.9732 26.3245 55.8566C25.7561 53.4788 25.7977 52.4325 26.236 50.0693C26.481 48.7492 27.749 47.8764 29.0701 48.1218C30.3905 48.3665 31.2623 49.6354 31.0176 50.9558C30.6873 52.7363 30.6656 53.0995 31.0544 54.7263C31.3665 56.0327 30.5608 57.3441 29.2544 57.6566C29.0647 57.7016 28.8746 57.7236 28.6874 57.7236Z" fill="black"/>
<path d="M47.103 47.2738C46.1893 47.2738 45.3139 46.7566 44.9002 45.8749C43.8942 43.7312 41.6287 42.2204 39.263 42.1159C36.8973 42.0121 34.5076 43.3162 33.3159 45.3634C32.6402 46.5237 31.1518 46.917 29.9914 46.2416C28.8308 45.5662 28.4375 44.0778 29.1132 42.9171C31.2221 39.2939 35.2935 37.0717 39.4777 37.2576C43.6654 37.4426 47.5218 40.014 49.3029 43.8088C49.8735 45.0247 49.3502 46.4726 48.1346 47.0432C47.8007 47.1994 47.4493 47.2738 47.103 47.2738Z" fill="black"/>
<path d="M39.8339 58.4012C39.4525 58.4012 39.0656 58.3114 38.7046 58.1213C36.627 57.0294 35.2536 54.8074 35.205 52.4608C35.1577 50.1127 36.4398 47.8364 38.471 46.661C39.6339 45.9882 41.1208 46.3857 41.7936 47.5476C42.4661 48.7099 42.069 50.1973 40.9067 50.8702C40.4083 51.1583 40.0553 51.7855 40.0671 52.3615C40.0786 52.9362 40.4575 53.549 40.9674 53.8167C42.1559 54.4416 42.6131 55.9115 41.9882 57.1006C41.5533 57.9281 40.7083 58.4012 39.8339 58.4012Z" fill="black"/>
</g>
<path d="M63.705 31.8309C63.5995 26.1069 59.1502 21.4172 53.4446 20.9447C52.3309 20.8527 51.2179 20.7735 50.1045 20.7007C50.0553 19.5055 49.9968 18.3103 49.9243 17.1222C49.7103 13.6226 48.2007 10.3541 45.674 7.91901C43.1488 5.48523 39.8279 4.09646 36.3213 4.00828L36.1242 4.00349C28.5145 3.83353 22.0783 9.89337 21.8106 17.5081C21.7704 18.6512 21.7483 19.7601 21.7381 20.8543C20.1091 20.9757 18.4817 21.1141 16.8562 21.2725C12.8333 21.6645 9.64491 24.8037 9.18901 28.8199C7.84178 40.6875 7.88842 52.9915 8.94334 65.4646C9.53341 72.44 15.2124 77.9028 22.2039 78.2523C32.3233 78.758 42.6303 78.4283 53.352 77.2808C58.8495 76.692 63.0919 72.1493 63.3168 66.6246C63.7899 55.0336 63.9193 43.4296 63.705 31.8309ZM29.8918 20.4071C29.9036 19.5509 29.9218 18.6857 29.9531 17.795C30.0649 14.6114 32.7562 12.0805 35.9344 12.1492L36.1187 12.1537C39.117 12.2291 41.6086 14.6299 41.7917 17.6199C41.8466 18.5212 41.8923 19.4272 41.9332 20.3336C37.9132 20.2374 33.8984 20.2652 29.8918 20.4071Z" fill="#675AA6"/>
<path d="M9.48038 68.283C11.1461 73.8627 16.1875 77.9513 22.2042 78.2523C32.3237 78.758 42.6306 78.4283 53.3523 77.2808C58.8499 76.692 63.0922 72.1493 63.3171 66.6246C63.7896 55.034 63.919 43.4299 63.705 31.8313C63.6133 26.8426 60.2214 22.6408 55.5746 21.3304C51.1476 34.2286 39.5649 57.2754 11.5496 67.4821C10.8078 67.7523 10.1225 68.0191 9.48038 68.283Z" fill="#564896"/>
<path d="M18.0235 53.0714C16.8443 53.0714 15.8086 52.2117 15.6233 51.0101C14.77 45.4765 16.1674 39.7042 19.4576 35.1733C22.7476 30.6425 27.804 27.527 33.3303 26.626C34.6555 26.411 35.9053 27.3091 36.1213 28.6346C36.3376 29.9601 35.4382 31.2096 34.1127 31.4259C29.8426 32.122 25.9351 34.5296 23.3927 38.0311C20.8499 41.5325 19.7698 45.9931 20.4295 50.2693C20.6343 51.5964 19.7241 52.8385 18.397 53.043C18.2714 53.0622 18.1468 53.0714 18.0235 53.0714Z" fill="white"/>
<path d="M35.7794 70.9791C33.5731 70.9392 31.3735 70.55 29.2905 69.8021C23.6831 67.7888 19.6318 63.8902 17.575 58.5281C17.0938 57.2742 17.7203 55.8678 18.9743 55.387C20.2273 54.9065 21.6346 55.5324 22.1154 56.7863C23.6719 60.8437 26.6389 63.6832 30.9339 65.225C35.1491 66.738 39.9927 66.3256 43.8906 64.1186C47.7883 61.912 50.6358 57.9719 51.5073 53.5794C51.7686 52.2622 53.0478 51.406 54.3657 51.6676C55.6832 51.929 56.5391 53.2088 56.2777 54.5257C55.1343 60.2878 51.3993 65.4563 46.2867 68.3508C43.0993 70.1549 39.4304 71.0452 35.7794 70.9791Z" fill="white"/>
<path d="M53.5219 49.1725C52.2284 49.1725 51.1524 48.1534 51.0945 46.8484C50.7994 40.1655 46.2388 33.8034 40.0049 31.3773C38.7535 30.8901 38.134 29.4809 38.6209 28.2292C39.1081 26.9781 40.5163 26.358 41.7687 26.8452C49.7422 29.9486 55.5752 38.086 55.9528 46.6337C56.0119 47.9751 54.9724 49.1109 53.6312 49.1703C53.5948 49.1716 53.5584 49.1725 53.5219 49.1725Z" fill="white"/>
<path d="M36.3174 62.9171C33.1377 62.9171 29.9627 61.7423 27.62 59.4916C26.6517 58.5613 26.6207 57.0221 27.551 56.0537C28.4816 55.0857 30.0209 55.0547 30.9892 55.985C33.3057 58.2108 37.2951 58.6878 40.0723 57.0719C42.8485 55.4554 44.4031 51.7501 43.6111 48.6364C43.2801 47.3349 44.0667 46.0116 45.3686 45.6806C46.6701 45.3496 47.9934 46.1365 48.3244 47.4381C49.6665 52.7155 47.2254 58.5348 42.5195 61.2746C40.6202 62.3797 38.4679 62.9171 36.3174 62.9171Z" fill="white"/>
<path d="M25.4926 54.5289C24.3933 54.5289 23.3965 53.7784 23.1297 52.6619C22.5614 50.284 22.6029 49.2377 23.0412 46.8745C23.2863 45.5544 24.5543 44.6816 25.8753 44.927C27.1957 45.1717 28.0676 46.4407 27.8228 47.7611C27.4925 49.5415 27.4708 49.9048 27.8596 51.5316C28.1717 52.8379 27.366 54.1493 26.0596 54.4618C25.8699 54.5068 25.6798 54.5289 25.4926 54.5289Z" fill="white"/>
<path d="M43.9082 44.0791C42.9945 44.0791 42.1191 43.5618 41.7054 42.6801C40.6994 40.5364 38.434 39.0256 36.0682 38.9211C33.7025 38.8173 31.3128 40.1214 30.1212 42.1686C29.4455 43.3289 27.957 43.7222 26.7967 43.0469C25.636 42.3715 25.2427 40.883 25.9184 39.7224C28.0273 36.0992 32.0987 33.8769 36.2829 34.0628C40.4706 34.2478 44.327 36.8193 46.1081 40.614C46.6787 41.83 46.1554 43.2778 44.9398 43.8484C44.606 44.0046 44.2545 44.0791 43.9082 44.0791Z" fill="white"/>
<path d="M36.6392 55.2065C36.2577 55.2065 35.8708 55.1167 35.5098 54.9266C33.4322 53.8346 32.0588 51.6127 32.0103 49.2658C31.963 46.9176 33.245 44.6414 35.2763 43.466C36.4392 42.7932 37.926 43.1906 38.5988 44.3526C39.2713 45.5148 38.8742 47.0023 37.7123 47.6751C37.2139 47.9633 36.8609 48.5904 36.8724 49.1664C36.8839 49.7412 37.2628 50.3539 37.7727 50.6217C38.9611 51.2466 39.4183 52.7165 38.7934 53.9056C38.3586 54.7333 37.5136 55.2065 36.6392 55.2065Z" fill="#FFC209"/>
<path d="M86.0341 59.8386V24.9295H99.8068C102.455 24.9295 104.71 25.4352 106.574 26.4465C108.438 27.4465 109.858 28.8386 110.835 30.6227C111.824 32.3954 112.318 34.4409 112.318 36.759C112.318 39.0772 111.818 41.1227 110.818 42.8954C109.818 44.6681 108.369 46.0488 106.472 47.0375C104.585 48.0261 102.301 48.5204 99.6193 48.5204H90.8409V42.6056H98.4261C99.8466 42.6056 101.017 42.3613 101.938 41.8727C102.869 41.3727 103.563 40.6852 104.017 39.8102C104.483 38.9238 104.716 37.9068 104.716 36.759C104.716 35.6 104.483 34.5886 104.017 33.725C103.563 32.85 102.869 32.1738 101.938 31.6965C101.006 31.2079 99.8239 30.9636 98.392 30.9636H93.4148V59.8386H86.0341ZM121.819 60.3329C120.148 60.3329 118.66 60.0431 117.353 59.4636C116.046 58.8727 115.012 58.0034 114.25 56.8556C113.5 55.6965 113.125 54.2534 113.125 52.5261C113.125 51.0715 113.392 49.85 113.927 48.8613C114.461 47.8727 115.188 47.0772 116.108 46.475C117.029 45.8727 118.074 45.4181 119.245 45.1113C120.427 44.8045 121.665 44.5886 122.961 44.4636C124.483 44.3045 125.711 44.1568 126.642 44.0204C127.574 43.8727 128.25 43.6568 128.671 43.3727C129.091 43.0886 129.302 42.6681 129.302 42.1113V42.009C129.302 40.9295 128.961 40.0943 128.279 39.5034C127.608 38.9125 126.654 38.617 125.415 38.617C124.108 38.617 123.069 38.9068 122.296 39.4863C121.523 40.0545 121.012 40.7704 120.762 41.634L114.046 41.0886C114.387 39.4977 115.057 38.1227 116.057 36.9636C117.057 35.7931 118.347 34.8954 119.927 34.2704C121.518 33.634 123.358 33.3159 125.449 33.3159C126.904 33.3159 128.296 33.4863 129.625 33.8272C130.966 34.1681 132.154 34.6965 133.188 35.4125C134.233 36.1284 135.057 37.0488 135.66 38.1738C136.262 39.2875 136.563 40.6227 136.563 42.1795V59.8386H129.677V56.2079H129.472C129.052 57.0261 128.489 57.7477 127.785 58.3727C127.08 58.9863 126.233 59.4693 125.245 59.8215C124.256 60.1625 123.114 60.3329 121.819 60.3329ZM123.898 55.3215C124.966 55.3215 125.91 55.1113 126.728 54.6909C127.546 54.259 128.188 53.6795 128.654 52.9522C129.12 52.225 129.353 51.4011 129.353 50.4806V47.7022C129.125 47.85 128.813 47.9863 128.415 48.1113C128.029 48.225 127.591 48.3329 127.103 48.4352C126.614 48.5261 126.125 48.6113 125.637 48.6909C125.148 48.759 124.705 48.8215 124.307 48.8784C123.455 49.0034 122.711 49.2022 122.074 49.475C121.438 49.7477 120.944 50.117 120.591 50.5829C120.239 51.0375 120.063 51.6056 120.063 52.2875C120.063 53.2761 120.421 54.0318 121.137 54.5545C121.864 55.0659 122.785 55.3215 123.898 55.3215ZM162.061 41.1227L155.413 41.5318C155.299 40.9636 155.055 40.4522 154.68 39.9977C154.305 39.5318 153.811 39.1625 153.197 38.8897C152.595 38.6056 151.873 38.4636 151.032 38.4636C149.907 38.4636 148.958 38.7022 148.186 39.1795C147.413 39.6454 147.026 40.2704 147.026 41.0545C147.026 41.6795 147.276 42.2079 147.776 42.6397C148.276 43.0715 149.134 43.4181 150.35 43.6795L155.089 44.634C157.634 45.1568 159.532 45.9977 160.782 47.1568C162.032 48.3159 162.657 49.8386 162.657 51.725C162.657 53.4409 162.151 54.9465 161.14 56.242C160.14 57.5375 158.765 58.5488 157.015 59.2761C155.276 59.992 153.271 60.35 150.998 60.35C147.532 60.35 144.771 59.6284 142.714 58.1852C140.669 56.7306 139.47 54.7534 139.117 52.2534L146.259 51.8784C146.475 52.9352 146.998 53.742 147.828 54.2988C148.657 54.8443 149.72 55.117 151.015 55.117C152.288 55.117 153.311 54.8727 154.083 54.384C154.867 53.884 155.265 53.242 155.276 52.4579C155.265 51.7988 154.987 51.259 154.441 50.8386C153.896 50.4068 153.055 50.0772 151.919 49.85L147.384 48.9465C144.828 48.4352 142.924 47.5488 141.674 46.2875C140.436 45.0261 139.816 43.4181 139.816 41.4636C139.816 39.7818 140.271 38.3329 141.18 37.117C142.1 35.9011 143.39 34.9636 145.049 34.3045C146.72 33.6454 148.674 33.3159 150.913 33.3159C154.22 33.3159 156.822 34.0147 158.72 35.4125C160.629 36.8102 161.742 38.7136 162.061 41.1227ZM187.094 41.1227L180.446 41.5318C180.332 40.9636 180.088 40.4522 179.713 39.9977C179.338 39.5318 178.844 39.1625 178.23 38.8897C177.628 38.6056 176.906 38.4636 176.065 38.4636C174.94 38.4636 173.991 38.7022 173.219 39.1795C172.446 39.6454 172.06 40.2704 172.06 41.0545C172.06 41.6795 172.31 42.2079 172.81 42.6397C173.31 43.0715 174.168 43.4181 175.383 43.6795L180.122 44.634C182.668 45.1568 184.565 45.9977 185.815 47.1568C187.065 48.3159 187.69 49.8386 187.69 51.725C187.69 53.4409 187.185 54.9465 186.173 56.242C185.173 57.5375 183.798 58.5488 182.048 59.2761C180.31 59.992 178.304 60.35 176.031 60.35C172.565 60.35 169.804 59.6284 167.747 58.1852C165.702 56.7306 164.503 54.7534 164.151 52.2534L171.293 51.8784C171.508 52.9352 172.031 53.742 172.861 54.2988C173.69 54.8443 174.753 55.117 176.048 55.117C177.321 55.117 178.344 54.8727 179.116 54.384C179.901 53.884 180.298 53.242 180.31 52.4579C180.298 51.7988 180.02 51.259 179.474 50.8386C178.929 50.4068 178.088 50.0772 176.952 49.85L172.418 48.9465C169.861 48.4352 167.957 47.5488 166.707 46.2875C165.469 45.0261 164.849 43.4181 164.849 41.4636C164.849 39.7818 165.304 38.3329 166.213 37.117C167.133 35.9011 168.423 34.9636 170.082 34.3045C171.753 33.6454 173.707 33.3159 175.946 33.3159C179.253 33.3159 181.855 34.0147 183.753 35.4125C185.662 36.8102 186.776 38.7136 187.094 41.1227ZM221.28 37.1511H213.814C213.678 36.1852 213.4 35.3272 212.979 34.5772C212.559 33.8159 212.019 33.1681 211.36 32.634C210.701 32.1 209.939 31.6909 209.076 31.4068C208.223 31.1227 207.297 30.9806 206.297 30.9806C204.49 30.9806 202.917 31.4295 201.576 32.3272C200.235 33.2136 199.195 34.509 198.456 36.2136C197.718 37.9068 197.348 39.9636 197.348 42.384C197.348 44.8727 197.718 46.9636 198.456 48.6568C199.206 50.35 200.252 51.6284 201.593 52.492C202.934 53.3556 204.485 53.7875 206.246 53.7875C207.235 53.7875 208.15 53.6568 208.99 53.3954C209.843 53.134 210.598 52.7534 211.257 52.2534C211.917 51.742 212.462 51.1227 212.894 50.3954C213.337 49.6681 213.644 48.8386 213.814 47.9068L221.28 47.9409C221.087 49.5431 220.604 51.0886 219.831 52.5772C219.07 54.0545 218.042 55.3784 216.746 56.5488C215.462 57.7079 213.928 58.6284 212.144 59.3102C210.371 59.9806 208.365 60.3159 206.127 60.3159C203.013 60.3159 200.229 59.6113 197.775 58.2022C195.331 56.7931 193.4 54.7534 191.979 52.0829C190.57 49.4125 189.865 46.1795 189.865 42.384C189.865 38.5772 190.581 35.3386 192.013 32.6681C193.445 29.9977 195.388 27.9636 197.843 26.5659C200.297 25.1568 203.059 24.4522 206.127 24.4522C208.15 24.4522 210.025 24.7363 211.752 25.3045C213.49 25.8727 215.03 26.7022 216.371 27.7931C217.712 28.8727 218.803 30.1965 219.644 31.7647C220.496 33.3329 221.042 35.1284 221.28 37.1511ZM224.516 59.8386V33.6568H231.556V38.225H231.829C232.306 36.6 233.107 35.3727 234.232 34.5431C235.357 33.7022 236.653 33.2818 238.119 33.2818C238.482 33.2818 238.874 33.3045 239.295 33.35C239.715 33.3954 240.085 33.4579 240.403 33.5375V39.9806C240.062 39.8784 239.59 39.7875 238.988 39.7079C238.386 39.6284 237.835 39.5886 237.335 39.5886C236.266 39.5886 235.312 39.8215 234.471 40.2875C233.641 40.742 232.982 41.3784 232.494 42.1965C232.016 43.0147 231.778 43.9579 231.778 45.0261V59.8386H224.516ZM248.953 60.3329C247.283 60.3329 245.794 60.0431 244.487 59.4636C243.18 58.8727 242.146 58.0034 241.385 56.8556C240.635 55.6965 240.26 54.2534 240.26 52.5261C240.26 51.0715 240.527 49.85 241.061 48.8613C241.595 47.8727 242.322 47.0772 243.243 46.475C244.163 45.8727 245.209 45.4181 246.379 45.1113C247.561 44.8045 248.8 44.5886 250.095 44.4636C251.618 44.3045 252.845 44.1568 253.777 44.0204C254.709 43.8727 255.385 43.6568 255.805 43.3727C256.226 43.0886 256.436 42.6681 256.436 42.1113V42.009C256.436 40.9295 256.095 40.0943 255.413 39.5034C254.743 38.9125 253.788 38.617 252.55 38.617C251.243 38.617 250.203 38.9068 249.43 39.4863C248.658 40.0545 248.146 40.7704 247.896 41.634L241.18 41.0886C241.521 39.4977 242.192 38.1227 243.192 36.9636C244.192 35.7931 245.481 34.8954 247.061 34.2704C248.652 33.634 250.493 33.3159 252.584 33.3159C254.038 33.3159 255.43 33.4863 256.76 33.8272C258.101 34.1681 259.288 34.6965 260.322 35.4125C261.368 36.1284 262.192 37.0488 262.794 38.1738C263.396 39.2875 263.697 40.6227 263.697 42.1795V59.8386H256.811V56.2079H256.606C256.186 57.0261 255.623 57.7477 254.919 58.3727C254.214 58.9863 253.368 59.4693 252.379 59.8215C251.391 60.1625 250.248 60.3329 248.953 60.3329ZM251.033 55.3215C252.101 55.3215 253.044 55.1113 253.862 54.6909C254.68 54.259 255.322 53.6795 255.788 52.9522C256.254 52.225 256.487 51.4011 256.487 50.4806V47.7022C256.26 47.85 255.947 47.9863 255.55 48.1113C255.163 48.225 254.726 48.3329 254.237 48.4352C253.748 48.5261 253.26 48.6113 252.771 48.6909C252.283 48.759 251.839 48.8215 251.442 48.8784C250.589 49.0034 249.845 49.2022 249.209 49.475C248.572 49.7477 248.078 50.117 247.726 50.5829C247.373 51.0375 247.197 51.6056 247.197 52.2875C247.197 53.2761 247.555 54.0318 248.271 54.5545C248.998 55.0659 249.919 55.3215 251.033 55.3215ZM281.49 33.6568V39.1113H265.331V33.6568H281.49ZM269.03 59.8386V31.7647C269.03 29.867 269.399 28.2931 270.138 27.0431C270.888 25.7931 271.911 24.8556 273.206 24.2306C274.502 23.6056 275.973 23.2931 277.621 23.2931C278.735 23.2931 279.752 23.3784 280.672 23.5488C281.604 23.7193 282.297 23.8727 282.752 24.009L281.456 29.4636C281.172 29.3727 280.82 29.2875 280.399 29.2079C279.99 29.1284 279.57 29.0886 279.138 29.0886C278.07 29.0886 277.326 29.3386 276.905 29.8386C276.485 30.3272 276.274 31.0147 276.274 31.9011V59.8386H269.03ZM297.933 33.6568V39.1113H282.166V33.6568H297.933ZM285.745 27.384H293.006V51.7931C293.006 52.4636 293.109 52.9863 293.313 53.3613C293.518 53.725 293.802 53.9806 294.166 54.1284C294.541 54.2761 294.972 54.35 295.461 54.35C295.802 54.35 296.143 54.3215 296.484 54.2647C296.825 54.1965 297.086 54.1454 297.268 54.1113L298.41 59.5147C298.046 59.6284 297.535 59.759 296.876 59.9068C296.217 60.0659 295.416 60.1625 294.472 60.1965C292.722 60.2647 291.188 60.0318 289.87 59.4977C288.563 58.9636 287.546 58.134 286.819 57.009C286.092 55.884 285.734 54.4636 285.745 52.7477V27.384Z" fill="white"/>
</g>
<defs>
<filter id="filter0_di_3_62" x="0.163818" y="0" width="307.836" height="93.6772" filterUnits="userSpaceOnUse" color-interpolation-filters="sRGB">
<feFlood flood-opacity="0" result="BackgroundImageFix"/>
<feColorMatrix in="SourceAlpha" type="matrix" values="0 0 0 0 0 0 0 0 0 0 0 0 0 0 0 0 0 0 127 0" result="hardAlpha"/>
<feOffset dy="4"/>
<feGaussianBlur stdDeviation="4"/>
<feComposite in2="hardAlpha" operator="out"/>
<feColorMatrix type="matrix" values="0 0 0 0 0 0 0 0 0 0 0 0 0 0 0 0 0 0 0.35 0"/>
<feBlend mode="normal" in2="BackgroundImageFix" result="effect1_dropShadow_3_62"/>
<feBlend mode="normal" in="SourceGraphic" in2="effect1_dropShadow_3_62" result="shape"/>
<feColorMatrix in="SourceAlpha" type="matrix" values="0 0 0 0 0 0 0 0 0 0 0 0 0 0 0 0 0 0 127 0" result="hardAlpha"/>
<feOffset dy="2"/>
<feGaussianBlur stdDeviation="1"/>
<feComposite in2="hardAlpha" operator="arithmetic" k2="-1" k3="1"/>
<feColorMatrix type="matrix" values="0 0 0 0 0 0 0 0 0 0 0 0 0 0 0 0 0 0 0.5 0"/>
<feBlend mode="normal" in2="shape" result="effect2_innerShadow_3_62"/>
</filter>
</defs>
</svg>
